# xmcd
# 
# Track frame offsets:
#     150
#     3012
#     26405
#     51287
#     65495
#     67302
#     79932
#     91762
#     111452
#     131445
#     151665
#     166005
#     174715
#     196970
# 
# Disc length: 3012
# 
# Revision: 15
# Processed by: cddbd v1.5.2PL0 Copyright (c) Steve Scherf et al.
# Submitted via: BonkEnc v1.0.15
# 
DISCID=af0bc20e
DTITLE=Sinead O'Connor - Universal Mother
DYEAR=1994
DGENRE=Pop
TTITLE0=Germaine
TTITLE1=Fire On Babylon
TTITLE2=John, I Love You
TTITLE3=My Darling Child
TTITLE4=Am I A Human?
TTITLE5=Red Footbal
TTITLE6=All Apologies
TTITLE7=Perfect Indian
TTITLE8=Scorn Not His Simplicity
TTITLE9=All Babies
TTITLE10=In This Heart
TTITLE11=Tiny Grief Song
TTITLE12=Famine
TTITLE13=Thank You For Hearing Me
EXTD=YEAR: 1994
EXTT0=
EXTT1=
EXTT2=
EXTT3=
EXTT4=
EXTT5=
EXTT6=
EXTT7=
EXTT8=
EXTT9=
EXTT10=
EXTT11=
EXTT12=
EXTT13=
PLAYORDER=
